<?xml version="1.0" encoding="utf-8"?>
<!-- Generator: Adobe Illustrator 16.0.4, SVG Export Plug-In . SVG Version: 6.00 Build 0)  -->
<!DOCTYPE svg PUBLIC "-//W3C//DTD SVG 1.1//EN" "http://www.w3.org/Graphics/SVG/1.1/DTD/svg11.dtd">
<svg version="1.1" id="Layer_1" xmlns="http://www.w3.org/2000/svg" xmlns:xlink="http://www.w3.org/1999/xlink" x="0px" y="0px"
	 width="8px" height="8.043px" viewBox="0 0 8 8.043" enable-background="new 0 0 8 8.043" xml:space="preserve">
<g>
	<path fill="#0074BD" d="M7.997,0.57C7.993,0.258,7.741,0.008,7.43,0.008L3.14,0C3.139,0,3.138,0,3.138,0
		c-0.31,0-0.563,0.255-0.563,0.562c0,0.312,0.25,0.567,0.562,0.568L6.07,1.133L2.946,4.259c-0.219,0.221-0.219,0.577,0,0.799
		C3.056,5.167,3.2,5.222,3.345,5.222c0.145,0,0.29-0.055,0.399-0.164l3.124-3.127l0.005,2.933c0,0.312,0.252,0.564,0.562,0.564
		c0.001,0,0.001,0,0.002,0C7.748,5.427,8,5.175,8,4.862L7.997,0.57z"/>
	<path fill="#0074BD" d="M3.345,7.101H0.938V4.785c0-0.259-0.21-0.47-0.469-0.47C0.208,4.315,0,4.526,0,4.785v2.788
		c0,0.259,0.208,0.47,0.469,0.47h2.876c0.261,0,0.471-0.211,0.471-0.47C3.815,7.311,3.605,7.101,3.345,7.101z"/>
</g>
</svg>
